<svg xmlns="http://www.w3.org/2000/svg" xmlns:xlink="http://www.w3.org/1999/xlink" viewBox="0 0 430 430" width="430" height="430" preserveAspectRatio="xMidYMid meet" style="width: 100%; height: 100%; transform: translate3d(0px, 0px, 0px); content-visibility: visible;"><defs><clipPath id="__lottie_element_16"><rect width="430" height="430" x="0" y="0"/></clipPath><clipPath id="__lottie_element_18"><path d="M0,0 L430,0 L430,430 L0,430z"/></clipPath><filter id="__lottie_element_24" x="-100%" y="-100%" width="300%" height="300%"><feGaussianBlur result="filter_result_0" stdDeviation="52.5 52.5" edgeMode="wrap"/></filter><g id="__lottie_element_25"><g clip-path="url(#__lottie_element_26)" transform="matrix(1,0,0,1,0,0)" opacity="1" style="display: block;"><g transform="matrix(1,0,0,1,-35,-35)" opacity="1" style="display: block;"><g opacity="1" transform="matrix(1,0,0,1,236.7469940185547,250)"><path stroke-linecap="round" stroke-linejoin="round" fill-opacity="0" class="primary" stroke="rgb(18,19,49)" stroke-opacity="1" stroke-width="12" d=" M-99.30500030517578,160.11900329589844 C-99.30500030517578,160.11900329589844 -99.30500030517578,-124.9229965209961 -99.30500030517578,-124.9229965209961 C-99.30500030517578,-144.36099243164062 -83.5469970703125,-160.11900329589844 -64.10900115966797,-160.11900329589844 C-64.10900115966797,-160.11900329589844 64.10900115966797,-160.11900329589844 64.10900115966797,-160.11900329589844 C83.5469970703125,-160.11900329589844 99.30500030517578,-144.36099243164062 99.30500030517578,-124.9229965209961 C99.30500030517578,-124.9229965209961 99.30500030517578,160.11900329589844 99.30500030517578,160.11900329589844"/></g><g opacity="1" transform="matrix(1,0,0,1,336.0530090332031,400.1189880371094)"><path stroke-linecap="round" stroke-linejoin="round" fill-opacity="0" class="primary" stroke="rgb(18,19,49)" stroke-opacity="1" stroke-width="12" d=" M0,0"/></g><g opacity="1" transform="matrix(1,0,0,1,236.7469940185547,410.1189880371094)"><path stroke-linecap="round" stroke-linejoin="round" fill-opacity="0" class="primary" stroke="rgb(18,19,49)" stroke-opacity="1" stroke-width="12" d=" M145.56300354003906,0 C145.56300354003906,0 -145.56300354003906,0 -145.56300354003906,0"/></g><g opacity="1" transform="matrix(1,0,0,1,236.7469940185547,166.2169952392578)"><path stroke-linecap="round" stroke-linejoin="round" fill-opacity="0" class="primary" stroke="rgb(18,19,49)" stroke-opacity="1" stroke-width="12" d=" M53.97700119018555,43.66899871826172 C53.97700119018555,43.66899871826172 -53.97700119018555,43.66899871826172 -53.97700119018555,43.66899871826172 C-62.03799819946289,43.66899871826172 -68.572998046875,37.1349983215332 -68.572998046875,29.073999404907227 C-68.572998046875,29.073999404907227 -68.572998046875,-29.073999404907227 -68.572998046875,-29.073999404907227 C-68.572998046875,-37.1349983215332 -62.03799819946289,-43.66899871826172 -53.97700119018555,-43.66899871826172 C-53.97700119018555,-43.66899871826172 53.97700119018555,-43.66899871826172 53.97700119018555,-43.66899871826172 C62.03799819946289,-43.66899871826172 68.572998046875,-37.1349983215332 68.572998046875,-29.073999404907227 C68.572998046875,-29.073999404907227 68.572998046875,29.073999404907227 68.572998046875,29.073999404907227 C68.572998046875,37.1349983215332 62.03799819946289,43.66899871826172 53.97700119018555,43.66899871826172z"/></g><g opacity="1" transform="matrix(1,0,0,1,312.3689880371094,340.36700439453125)"><path stroke-linecap="round" stroke-linejoin="round" fill-opacity="0" class="primary" stroke="rgb(18,19,49)" stroke-opacity="1" stroke-width="12" d=" M22.68400001525879,-23.18400001525879 C22.68400001525879,-23.18400001525879 -22.68400001525879,-23.18400001525879 -22.68400001525879,-23.18400001525879 C-22.68400001525879,-23.18400001525879 -22.68400001525879,23.18400001525879 -22.68400001525879,23.18400001525879 C-22.68400001525879,23.18400001525879 22.68400001525879,23.18400001525879 22.68400001525879,23.18400001525879"/></g></g><g transform="matrix(1,0,0,1,-35,-35)" opacity="1" style="display: block;"><g opacity="1" transform="matrix(1,0,0,1,221.82699584960938,165.94500732421875)"><path stroke-linecap="round" stroke-linejoin="round" fill-opacity="0" class="secondary" stroke="rgb(8,168,138)" stroke-opacity="1" stroke-width="12" d=" M15.14799976348877,15.14799976348877 C15.14799976348877,15.14799976348877 -15.14799976348877,-15.14799976348877 -15.14799976348877,-15.14799976348877"/></g><g opacity="1" transform="matrix(1,0,0,1,236.7469940185547,181.0919952392578)"><path stroke-linecap="round" stroke-linejoin="round" fill-opacity="0" class="secondary" stroke="rgb(8,168,138)" stroke-opacity="1" stroke-width="18" d=" M-0.16099999845027924,-0.16099999845027924 C-0.16099999845027924,-0.16099999845027924 0.16099999845027924,0.16099999845027924 0.16099999845027924,0.16099999845027924"/></g></g><g transform="matrix(1,0,0,1,330.218017578125,259.23199462890625)" opacity="1" style="display: block;"><g opacity="1" transform="matrix(1,0,0,1,0,0)"><path stroke-linecap="round" stroke-linejoin="round" fill-opacity="0" class="primary" stroke="rgb(18,19,49)" stroke-opacity="1" stroke-width="12.04" d=" M28.722000122070312,-12.074999809265137 C28.722000122070312,-12.074999809265137 29.165000915527344,9.862000465393066 29.165000915527344,9.862000465393066 C29.177000045776367,69.31800079345703 -29.165000915527344,46.95199966430664 -29.165000915527344,46.95199966430664"/></g></g><g transform="matrix(1,0,0,1,-35,-35)" opacity="1" style="display: block;"><g opacity="1" transform="matrix(1,0,0,1,356.1700134277344,154.11599731445312)"><path stroke-linecap="round" stroke-linejoin="round" fill-opacity="0" class="primary" stroke="rgb(18,19,49)" stroke-opacity="1" stroke-width="12.04" d=" M-20.280000686645508,-19 C-20.280000686645508,-19 18.999000549316406,10.779000282287598 26.216999053955078,35.36899948120117"/></g><g opacity="1" transform="matrix(1,0,0,1,388.30499267578125,203.51600646972656)"><path stroke-linecap="round" stroke-linejoin="round" fill-opacity="0" class="secondary" stroke="rgb(8,168,138)" stroke-opacity="1" stroke-width="12.04" d=" M37.678001403808594,16.14299964904785 C37.678001403808594,16.14299964904785 16.29400062561035,28.37700080871582 16.29400062561035,28.37700080871582 C16.29400062561035,28.37700080871582 16.10300064086914,76.45999908447266 16.10300064086914,76.45999908447266 C16.10300064086914,76.45999908447266 -7.235000133514404,76.36699676513672 -7.235000133514404,76.36699676513672 C-7.235000133514404,76.36699676513672 -7.03000020980835,24.927000045776367 -7.03000020980835,24.927000045776367 C-7.03000020980835,24.927000045776367 -6.988999843597412,24.927000045776367 -6.988999843597412,24.927000045776367 C-6.988999843597412,24.927000045776367 -22.69099998474121,-2.5209999084472656 -22.69099998474121,-2.5209999084472656 C-22.69099998474121,-2.5209999084472656 14.743000030517578,-23.937000274658203 14.743000030517578,-23.937000274658203 C14.743000030517578,-23.937000274658203 37.678001403808594,16.14299964904785 37.678001403808594,16.14299964904785z"/><path fill="rgb(255,0,0)" fill-opacity="1" d=" M37.678001403808594,16.14299964904785 C37.678001403808594,16.14299964904785 16.29400062561035,28.37700080871582 16.29400062561035,28.37700080871582 C16.29400062561035,28.37700080871582 16.10300064086914,76.45999908447266 16.10300064086914,76.45999908447266 C16.10300064086914,76.45999908447266 -7.235000133514404,76.36699676513672 -7.235000133514404,76.36699676513672 C-7.235000133514404,76.36699676513672 -7.03000020980835,24.927000045776367 -7.03000020980835,24.927000045776367 C-7.03000020980835,24.927000045776367 -6.988999843597412,24.927000045776367 -6.988999843597412,24.927000045776367 C-6.988999843597412,24.927000045776367 -22.69099998474121,-2.5209999084472656 -22.69099998474121,-2.5209999084472656 C-22.69099998474121,-2.5209999084472656 14.743000030517578,-23.937000274658203 14.743000030517578,-23.937000274658203 C14.743000030517578,-23.937000274658203 37.678001403808594,16.14299964904785 37.678001403808594,16.14299964904785z"/></g></g></g></g><clipPath id="__lottie_element_26"><path d="M0,0 L430,0 L430,430 L0,430z"/></clipPath><mask id="__lottie_element_25_1" mask-type="alpha"><use xmlns:ns1="http://www.w3.org/1999/xlink" ns1:href="#__lottie_element_25"/></mask></defs><g clip-path="url(#__lottie_element_16)"><g clip-path="url(#__lottie_element_18)" transform="matrix(1,0,0,1,0,0)" opacity="1" style="display: block;"><g mask="url(#__lottie_element_25_1)" style="display: block;"><g filter="url(#__lottie_element_24)" transform="matrix(-0.1674155443906784,-2.3941538333892822,2.3941538333892822,-0.1674155443906784,271.9410095214844,220.4600067138672)" opacity="1"><g class="design" opacity="1" transform="matrix(1,0,0,1,0,0)"><path class="primary" fill="rgb(75,225,236)" fill-opacity="1" d=" M0,-250 C137.97500610351562,-250 250,-137.97500610351562 250,0 C250,137.97500610351562 137.97500610351562,250 0,250 C-137.97500610351562,250 -250,137.97500610351562 -250,0 C-250,-137.97500610351562 -137.97500610351562,-250 0,-250z"/></g><g class="design" opacity="1" transform="matrix(1,0,0,1,113.24199676513672,-118.88400268554688)"><path class="secondary" fill="rgb(203,94,238)" fill-opacity="1" d=" M0,-176.5 C97.47799682617188,-176.5 176.5,-97.47799682617188 176.5,0 C176.5,97.47799682617188 97.47799682617188,176.5 0,176.5 C-43.948001861572266,176.5 -74.39600372314453,142.4429931640625 -105.29000091552734,115.86900329589844 C-142.92100524902344,83.5 -176.5,53.53099822998047 -176.5,0 C-176.5,-97.47799682617188 -97.47799682617188,-176.5 0,-176.5z"/></g></g></g></g></g></svg>